<svg width="41" height="41" viewBox="0 0 41 41" fill="none" xmlns="http://www.w3.org/2000/svg">
<g id="Play">
<path id="Vector" d="M38.2187 20.6248C38.2198 21.0545 38.1096 21.4772 37.8989 21.8517C37.6882 22.2263 37.3842 22.5399 37.0164 22.7621L14.2225 36.7062C13.8382 36.9415 13.3981 37.0699 12.9475 37.0783C12.497 37.0866 12.0524 36.9746 11.6596 36.7536C11.2706 36.5361 10.9466 36.2189 10.7208 35.8347C10.495 35.4504 10.3756 35.0129 10.375 34.5673V6.68237C10.3756 6.23669 10.495 5.79922 10.7208 5.41496C10.9466 5.0307 11.2706 4.71351 11.6596 4.496C12.0524 4.27507 12.497 4.16299 12.9475 4.17133C13.3981 4.17968 13.8382 4.30814 14.2225 4.54347L37.0164 18.4875C37.3842 18.7097 37.6882 19.0234 37.8989 19.3979C38.1096 19.7724 38.2198 20.1951 38.2187 20.6248Z" fill="#3A6573"/>
</g>
</svg>
