<svg width="42" height="41" viewBox="0 0 42 41" fill="none" xmlns="http://www.w3.org/2000/svg">
<g id="ArrowCounterClockwise">
<path id="Vector" d="M5.81248 20.6247C5.81212 24.6176 7.38418 28.45 10.1884 31.2924C12.9926 34.1348 16.8034 35.7586 20.7959 35.8122H21C24.8787 35.8219 28.6123 34.3375 31.4256 31.6673C31.5464 31.553 31.6435 31.4161 31.7114 31.2643C31.7793 31.1125 31.8166 30.9488 31.8212 30.7826C31.8258 30.6163 31.7977 30.4508 31.7384 30.2955C31.679 30.1402 31.5897 29.998 31.4754 29.8772C31.3611 29.7564 31.2242 29.6593 31.0724 29.5914C30.9206 29.5235 30.7569 29.4862 30.5907 29.4816C30.4245 29.4769 30.259 29.5051 30.1036 29.5644C29.9483 29.6238 29.8061 29.7131 29.6853 29.8274C27.8758 31.5339 25.6036 32.6694 23.1524 33.092C20.7013 33.5147 18.18 33.2057 15.9035 32.2037C13.6269 31.2018 11.6961 29.5512 10.3522 27.4583C9.00825 25.3653 8.31081 22.9227 8.347 20.4357C8.38318 17.9487 9.15138 15.5275 10.5556 13.4745C11.9599 11.4215 13.9379 9.82784 16.2426 8.89252C18.5474 7.9572 21.0766 7.72172 23.5144 8.21549C25.9522 8.70925 28.1904 9.91038 29.9495 11.6688C29.9625 11.6828 29.9762 11.696 29.9907 11.7084L31.6581 13.235L28.9687 15.9245C28.789 16.1008 28.666 16.3266 28.6154 16.5732C28.5647 16.8197 28.5887 17.0758 28.6844 17.3086C28.78 17.5414 28.9428 17.7405 29.1521 17.8803C29.3614 18.0201 29.6077 18.0943 29.8594 18.0935H37.4531C37.7888 18.0935 38.1107 17.9601 38.348 17.7228C38.5854 17.4854 38.7187 17.1635 38.7187 16.8278V9.23408C38.7202 8.98308 38.647 8.73732 38.5084 8.52803C38.3698 8.31874 38.1722 8.15538 37.9405 8.05872C37.7089 7.96206 37.4537 7.93646 37.2075 7.98518C36.9612 8.0339 36.7351 8.15473 36.5577 8.33232L33.449 11.4489L31.7182 9.86689C29.592 7.74893 26.886 6.30838 23.9417 5.72708C20.9975 5.14579 17.947 5.44981 15.1754 6.60077C12.4037 7.75173 10.0353 9.69803 8.36887 12.194C6.70249 14.6899 5.81293 17.6236 5.81248 20.6247Z" fill="#3A6573"/>
</g>
</svg>
