<svg width="41" height="41" viewBox="0 0 41 41" fill="none" xmlns="http://www.w3.org/2000/svg">
<g id="GearSix">
<path id="Vector" d="M37.8956 17.3363C37.8604 17.1581 37.7872 16.9895 37.681 16.8421C37.5748 16.6947 37.4381 16.5719 37.2802 16.482L32.561 13.7925L32.542 8.47375C32.5415 8.29058 32.5011 8.10971 32.4238 7.94364C32.3465 7.77757 32.2341 7.63026 32.0943 7.51188C30.3824 6.06384 28.4111 4.95416 26.2851 4.24182C26.1177 4.18515 25.9402 4.16418 25.7642 4.18026C25.5882 4.19633 25.4175 4.2491 25.2631 4.33516L20.5028 6.99614L15.7377 4.33041C15.5832 4.24387 15.4123 4.1907 15.236 4.17435C15.0597 4.158 14.8819 4.17883 14.7141 4.23549C12.5894 4.9524 10.6202 6.06638 8.91123 7.51821C8.77164 7.63641 8.65934 7.78347 8.58205 7.94925C8.50476 8.11503 8.46432 8.29559 8.46352 8.4785L8.43979 13.802L3.72059 16.4915C3.5627 16.5814 3.42602 16.7042 3.31983 16.8516C3.21364 16.999 3.14043 17.1676 3.10518 17.3458C2.67327 19.5161 2.67327 21.7503 3.10518 23.9207C3.14043 24.0989 3.21364 24.2675 3.31983 24.4149C3.42602 24.5623 3.5627 24.6851 3.72059 24.775L8.43979 27.4645L8.45877 32.7848C8.45934 32.968 8.49967 33.1489 8.57697 33.3149C8.65427 33.481 8.7667 33.6283 8.90648 33.7467C10.6184 35.1947 12.5897 36.3044 14.7157 37.0168C14.8831 37.0734 15.0606 37.0944 15.2366 37.0783C15.4126 37.0622 15.5833 37.0095 15.7377 36.9234L20.5028 34.2545L25.2679 36.9203C25.4564 37.0253 25.669 37.0798 25.8848 37.0785C26.0231 37.0784 26.1604 37.056 26.2914 37.012C28.4156 36.2954 30.3847 35.1826 32.0943 33.7325C32.2339 33.6143 32.3462 33.4672 32.4235 33.3014C32.5008 33.1356 32.5412 32.9551 32.542 32.7722L32.5658 27.4486L37.285 24.7592C37.4428 24.6693 37.5795 24.5465 37.6857 24.3991C37.7919 24.2517 37.8651 24.0831 37.9004 23.9049C38.3299 21.7363 38.3283 19.5043 37.8956 17.3363ZM20.5028 26.9535C19.2512 26.9535 18.0277 26.5823 16.9871 25.887C15.9464 25.1916 15.1353 24.2033 14.6563 23.047C14.1774 21.8907 14.0521 20.6183 14.2962 19.3908C14.5404 18.1632 15.1431 17.0357 16.0281 16.1507C16.9131 15.2657 18.0407 14.663 19.2682 14.4188C20.4958 14.1746 21.7681 14.2999 22.9244 14.7789C24.0808 15.2579 25.0691 16.069 25.7644 17.1096C26.4598 18.1503 26.8309 19.3737 26.8309 20.6253C26.8309 22.3037 26.1642 23.9132 24.9774 25.1C23.7907 26.2867 22.1811 26.9535 20.5028 26.9535Z" fill="#3A6573"/>
</g>
</svg>
