<svg xmlns="http://www.w3.org/2000/svg" width="211" height="750" viewBox="0 0 211 750" fill="none">
  <path d="M425.738 83.9384C429.266 110.635 443.883 134.608 465.999 149.97L526.23 191.808C655.018 281.267 676.706 463.153 572.565 580.386L503.399 658.247C484.568 679.445 463.259 698.304 439.928 714.419L377.188 757.755C368.894 763.484 361.205 770.043 354.24 777.33L344.265 787.766C244.954 891.673 71.3903 802.202 98.4145 661.032C105.95 621.668 96.7612 580.944 73.0529 548.63L47.6286 513.977C-36.2497 399.651 -4.71944 238.077 115.988 163.675L152.323 141.279C163.973 134.098 174.576 125.341 183.829 115.258L260.424 31.7929C315.326 -28.0333 415.099 3.43848 425.738 83.9384Z" fill="url(#paint0_linear_10818_8794)" fill-opacity="0.1"/>
  <defs>
    <linearGradient id="paint0_linear_10818_8794" x1="474.408" y1="-93.4363" x2="49.671" y2="1155.83" gradientUnits="userSpaceOnUse">
      <stop stop-color="#BDCCD1"/>
      <stop offset="1" stop-color="#61686B"/>
    </linearGradient>
  </defs>
</svg> 