<svg xmlns="http://www.w3.org/2000/svg" width="154" height="638" viewBox="0 0 154 638" fill="none">
  <path d="M117.15 253.728C95.9816 270.373 82.8095 295.169 80.8681 322.028L75.5808 395.173C64.2754 551.575 -81.144 662.958 -235.09 633.13L-337.334 613.32C-365.171 607.927 -392.258 599.209 -418.015 587.353L-487.282 555.47C-496.439 551.255 -506.001 547.984 -515.821 545.707L-529.885 542.446C-669.903 509.981 -681.414 315.052 -546.189 266.334C-508.483 252.749 -478.133 224.083 -462.419 187.213L-445.568 147.674C-389.975 17.2315 -234.9 -38.0127 -109.356 27.9015L-71.5655 47.7427C-59.4483 54.1046 -46.5102 58.7617 -33.1182 61.5819L77.7343 84.9264C157.191 101.659 180.98 203.538 117.15 253.728Z" fill="url(#paint0_linear_10818_8787)" fill-opacity="0.1"/>
  <defs>
    <linearGradient id="paint0_linear_10818_8787" x1="-438.365" y1="-74.2638" x2="-263.794" y2="756.086" gradientUnits="userSpaceOnUse">
      <stop stop-color="#BDCCD1"/>
      <stop offset="1" stop-color="#61686B"/>
    </linearGradient>
  </defs>
</svg> 